<?xml version="1.0" encoding="utf-8"?>
<!-- Generator: Adobe Illustrator 16.0.0, SVG Export Plug-In . SVG Version: 6.00 Build 0)  -->
<!DOCTYPE svg PUBLIC "-//W3C//DTD SVG 1.1//EN" "http://www.w3.org/Graphics/SVG/1.1/DTD/svg11.dtd">
<svg version="1.1" xmlns="http://www.w3.org/2000/svg" xmlns:xlink="http://www.w3.org/1999/xlink" x="0px" y="0px"
	 width="427.327px" height="406.405px" viewBox="0 0 427.327 406.405" enable-background="new 0 0 427.327 406.405"
	 xml:space="preserve">
<g id="N">
</g>
<g id="圖層_3">
	<g>
		<defs>
			<rect id="SVGID_1_" x="-2025.909" y="-287.387" width="1920" height="1080"/>
		</defs>
		<clipPath id="SVGID_2_">
			<use xlink:href="#SVGID_1_"  overflow="visible"/>
		</clipPath>
		<g clip-path="url(#SVGID_2_)">
			<g>
				<g>
					<g>
						<g>
							<g>
								<g>
									<g>
										<g>
											<g>
												
													<image overflow="visible" width="100" height="100" xlink:href="../../../作業/Vue直播班/100-90-3-monochrome.png"  transform="matrix(1 0 0 1 -65.9092 352.6133)">
												</image>
											</g>
											<g>
												
													<image overflow="visible" width="100" height="100" xlink:href="../../../作業/Vue直播班/100-90-3-monochrome.png"  transform="matrix(1 0 0 1 34.0908 352.6133)">
												</image>
											</g>
										</g>
										<g>
											<g>
												
													<image overflow="visible" width="100" height="100" xlink:href="../../../作業/Vue直播班/100-90-3-monochrome.png"  transform="matrix(1 0 0 1 -65.9092 252.6133)">
												</image>
											</g>
											<g>
												
													<image overflow="visible" width="100" height="100" xlink:href="../../../作業/Vue直播班/100-90-3-monochrome.png"  transform="matrix(1 0 0 1 34.0908 252.6133)">
												</image>
											</g>
										</g>
									</g>
								</g>
								<g>
									<g>
										<g>
											<g>
												
													<image overflow="visible" width="100" height="100" xlink:href="../../../作業/Vue直播班/100-90-3-monochrome.png"  transform="matrix(1 0 0 1 134.0908 352.6133)">
												</image>
											</g>
											<g>
												
													<image overflow="visible" width="100" height="100" xlink:href="../../../作業/Vue直播班/100-90-3-monochrome.png"  transform="matrix(1 0 0 1 234.0908 352.6133)">
												</image>
											</g>
										</g>
										<g>
											<g>
												
													<image overflow="visible" width="100" height="100" xlink:href="../../../作業/Vue直播班/100-90-3-monochrome.png"  transform="matrix(1 0 0 1 134.0908 252.6133)">
												</image>
											</g>
											<g>
												
													<image overflow="visible" width="100" height="100" xlink:href="../../../作業/Vue直播班/100-90-3-monochrome.png"  transform="matrix(1 0 0 1 234.0908 252.6133)">
												</image>
											</g>
										</g>
									</g>
									<g>
										<g>
											<g>
												
													<image overflow="visible" width="100" height="100" xlink:href="../../../作業/Vue直播班/100-90-3-monochrome.png"  transform="matrix(1 0 0 1 334.0908 352.6133)">
												</image>
											</g>
										</g>
										<g>
											<g>
												
													<image overflow="visible" width="100" height="100" xlink:href="../../../作業/Vue直播班/100-90-3-monochrome.png"  transform="matrix(1 0 0 1 334.0908 252.6133)">
												</image>
											</g>
										</g>
									</g>
								</g>
							</g>
						</g>
					</g>
				</g>
			</g>
			<g>
				<g>
					<g>
						<g>
							<g>
								<g>
									<g>
										<g>
											<g>
												
													<image overflow="visible" width="100" height="100" xlink:href="../../../作業/Vue直播班/100-90-3-monochrome.png"  transform="matrix(1 0 0 1 -65.9092 152.6133)">
												</image>
											</g>
											<g>
												
													<image overflow="visible" width="100" height="100" xlink:href="../../../作業/Vue直播班/100-90-3-monochrome.png"  transform="matrix(1 0 0 1 34.0908 152.6133)">
												</image>
											</g>
										</g>
										<g>
											<g>
												
													<image overflow="visible" width="100" height="100" xlink:href="../../../作業/Vue直播班/100-90-3-monochrome.png"  transform="matrix(1 0 0 1 -65.9092 52.6133)">
												</image>
											</g>
											<g>
												
													<image overflow="visible" width="100" height="100" xlink:href="../../../作業/Vue直播班/100-90-3-monochrome.png"  transform="matrix(1 0 0 1 34.0908 52.6133)">
												</image>
											</g>
										</g>
									</g>
								</g>
								<g>
									<g>
										<g>
											<g>
												
													<image overflow="visible" width="100" height="100" xlink:href="../../../作業/Vue直播班/100-90-3-monochrome.png"  transform="matrix(1 0 0 1 134.0908 152.6133)">
												</image>
											</g>
											<g>
												
													<image overflow="visible" width="100" height="100" xlink:href="../../../作業/Vue直播班/100-90-3-monochrome.png"  transform="matrix(1 0 0 1 234.0908 152.6133)">
												</image>
											</g>
										</g>
										<g>
											<g>
												
													<image overflow="visible" width="100" height="100" xlink:href="../../../作業/Vue直播班/100-90-3-monochrome.png"  transform="matrix(1 0 0 1 134.0908 52.6133)">
												</image>
											</g>
											<g>
												
													<image overflow="visible" width="100" height="100" xlink:href="../../../作業/Vue直播班/100-90-3-monochrome.png"  transform="matrix(1 0 0 1 234.0908 52.6133)">
												</image>
											</g>
										</g>
									</g>
									<g>
										<g>
											<g>
												
													<image overflow="visible" width="100" height="100" xlink:href="../../../作業/Vue直播班/100-90-3-monochrome.png"  transform="matrix(1 0 0 1 334.0908 152.6133)">
												</image>
											</g>
										</g>
										<g>
											<g>
												
													<image overflow="visible" width="100" height="100" xlink:href="../../../作業/Vue直播班/100-90-3-monochrome.png"  transform="matrix(1 0 0 1 334.0908 52.6133)">
												</image>
											</g>
										</g>
									</g>
								</g>
							</g>
							<g>
								<g>
									<g>
										<g>
											<g>
												
													<image overflow="visible" width="100" height="100" xlink:href="../../../作業/Vue直播班/100-90-3-monochrome.png"  transform="matrix(1 0 0 1 -65.9092 -47.3867)">
												</image>
											</g>
											<g>
												
													<image overflow="visible" width="100" height="100" xlink:href="../../../作業/Vue直播班/100-90-3-monochrome.png"  transform="matrix(1 0 0 1 34.0908 -47.3867)">
												</image>
											</g>
										</g>
									</g>
								</g>
								<g>
									<g>
										<g>
											<g>
												
													<image overflow="visible" width="100" height="100" xlink:href="../../../作業/Vue直播班/100-90-3-monochrome.png"  transform="matrix(1 0 0 1 134.0908 -47.3867)">
												</image>
											</g>
											<g>
												
													<image overflow="visible" width="100" height="100" xlink:href="../../../作業/Vue直播班/100-90-3-monochrome.png"  transform="matrix(1 0 0 1 234.0908 -47.3867)">
												</image>
											</g>
										</g>
									</g>
									<g>
										<g>
											<g>
												
													<image overflow="visible" width="100" height="100" xlink:href="../../../作業/Vue直播班/100-90-3-monochrome.png"  transform="matrix(1 0 0 1 334.0908 -47.3867)">
												</image>
											</g>
										</g>
									</g>
								</g>
							</g>
						</g>
					</g>
				</g>
			</g>
		</g>
	</g>
</g>
<g id="圖層_2">
	<g>
		<g>
			<polygon fill="#FFFFFF" points="151.383,288.916 42.235,327.746 112.898,235.943 1.77,203.201 112.898,170.464 42.235,78.651 
				151.383,117.488 148.185,1.683 213.665,97.256 279.138,1.683 275.935,117.488 385.087,78.651 314.423,170.464 425.558,203.201 
				314.423,235.943 385.087,327.746 275.935,288.916 279.138,404.723 213.665,309.146 148.185,404.723 			"/>
			<path fill="#231815" d="M148.731,3.365l64.108,93.571l0.825,1.204l0.825-1.205l64.101-93.57l-3.137,113.379l-0.04,1.459
				l1.375-0.489l106.866-38.023l-69.184,89.889l-0.89,1.157l1.4,0.412l108.806,32.052l-108.807,32.057l-1.399,0.412l0.89,1.157
				l69.184,89.879l-106.866-38.017l-1.375-0.489l0.04,1.459l3.137,113.38l-64.101-93.574l-0.825-1.204l-0.825,1.204l-64.108,93.575
				l3.131-113.381l0.041-1.459l-1.375,0.489L43.667,326.706l69.182-89.879l0.891-1.157l-1.4-0.412L3.538,203.201l108.801-32.052
				l1.4-0.412l-0.891-1.157L43.666,79.691l106.862,38.023l1.375,0.49l-0.041-1.459L148.731,3.365 M279.685,0l-66.02,96.371
				L147.638,0l3.226,116.772L40.804,77.611l71.253,92.579L0,203.201l112.057,33.016l-71.253,92.569l110.06-39.154l-3.226,116.773
				l66.027-96.375l66.02,96.375l-3.23-116.773l110.064,39.154l-71.254-92.569l112.063-33.016L315.265,170.19l71.254-92.579
				l-110.064,39.161L279.685,0L279.685,0z"/>
		</g>
	</g>
</g>
</svg>
