<?xml version="1.0" encoding="utf-8"?>
<!-- Generator: Adobe Illustrator 16.0.0, SVG Export Plug-In . SVG Version: 6.00 Build 0)  -->
<!DOCTYPE svg PUBLIC "-//W3C//DTD SVG 1.1//EN" "http://www.w3.org/Graphics/SVG/1.1/DTD/svg11.dtd">
<svg version="1.1" xmlns="http://www.w3.org/2000/svg" xmlns:xlink="http://www.w3.org/1999/xlink" x="0px" y="0px"
	 width="387.393px" height="417.576px" viewBox="0 0 387.393 417.576" enable-background="new 0 0 387.393 417.576"
	 xml:space="preserve">
<g id="N">
</g>
<g id="圖層_3">
	<g>
		<defs>
			<rect id="SVGID_9_" x="-1993.522" y="-308.953" width="1920" height="1080"/>
		</defs>
		<clipPath id="SVGID_2_">
			<use xlink:href="#SVGID_9_"  overflow="visible"/>
		</clipPath>
		<g clip-path="url(#SVGID_2_)">
			<g>
				<g>
					<g>
						<g>
							<g>
								<g>
									<g>
										<g>
											<g>
												
													<image overflow="visible" width="100" height="100" xlink:href="../../../作業/Vue直播班/100-90-3-monochrome.png"  transform="matrix(1 0 0 1 -33.5225 331.0469)">
												</image>
											</g>
											<g>
												
													<image overflow="visible" width="100" height="100" xlink:href="../../../作業/Vue直播班/100-90-3-monochrome.png"  transform="matrix(1 0 0 1 66.4775 331.0469)">
												</image>
											</g>
										</g>
										<g>
											<g>
												
													<image overflow="visible" width="100" height="100" xlink:href="../../../作業/Vue直播班/100-90-3-monochrome.png"  transform="matrix(1 0 0 1 -33.5225 231.0469)">
												</image>
											</g>
											<g>
												
													<image overflow="visible" width="100" height="100" xlink:href="../../../作業/Vue直播班/100-90-3-monochrome.png"  transform="matrix(1 0 0 1 66.4775 231.0469)">
												</image>
											</g>
										</g>
									</g>
								</g>
								<g>
									<g>
										<g>
											<g>
												
													<image overflow="visible" width="100" height="100" xlink:href="../../../作業/Vue直播班/100-90-3-monochrome.png"  transform="matrix(1 0 0 1 166.4775 331.0469)">
												</image>
											</g>
											<g>
												
													<image overflow="visible" width="100" height="100" xlink:href="../../../作業/Vue直播班/100-90-3-monochrome.png"  transform="matrix(1 0 0 1 266.4775 331.0469)">
												</image>
											</g>
										</g>
										<g>
											<g>
												
													<image overflow="visible" width="100" height="100" xlink:href="../../../作業/Vue直播班/100-90-3-monochrome.png"  transform="matrix(1 0 0 1 166.4775 231.0469)">
												</image>
											</g>
											<g>
												
													<image overflow="visible" width="100" height="100" xlink:href="../../../作業/Vue直播班/100-90-3-monochrome.png"  transform="matrix(1 0 0 1 266.4775 231.0469)">
												</image>
											</g>
										</g>
									</g>
									<g>
										<g>
											<g>
												
													<image overflow="visible" width="100" height="100" xlink:href="../../../作業/Vue直播班/100-90-3-monochrome.png"  transform="matrix(1 0 0 1 366.4775 331.0469)">
												</image>
											</g>
										</g>
										<g>
											<g>
												
													<image overflow="visible" width="100" height="100" xlink:href="../../../作業/Vue直播班/100-90-3-monochrome.png"  transform="matrix(1 0 0 1 366.4775 231.0469)">
												</image>
											</g>
										</g>
									</g>
								</g>
							</g>
						</g>
					</g>
				</g>
			</g>
			<g>
				<g>
					<g>
						<g>
							<g>
								<g>
									<g>
										<g>
											<g>
												
													<image overflow="visible" width="100" height="100" xlink:href="../../../作業/Vue直播班/100-90-3-monochrome.png"  transform="matrix(1 0 0 1 -33.5225 131.0469)">
												</image>
											</g>
											<g>
												
													<image overflow="visible" width="100" height="100" xlink:href="../../../作業/Vue直播班/100-90-3-monochrome.png"  transform="matrix(1 0 0 1 66.4775 131.0469)">
												</image>
											</g>
										</g>
										<g>
											<g>
												
													<image overflow="visible" width="100" height="100" xlink:href="../../../作業/Vue直播班/100-90-3-monochrome.png"  transform="matrix(1 0 0 1 -33.5225 31.0469)">
												</image>
											</g>
											<g>
												
													<image overflow="visible" width="100" height="100" xlink:href="../../../作業/Vue直播班/100-90-3-monochrome.png"  transform="matrix(1 0 0 1 66.4775 31.0469)">
												</image>
											</g>
										</g>
									</g>
								</g>
								<g>
									<g>
										<g>
											<g>
												
													<image overflow="visible" width="100" height="100" xlink:href="../../../作業/Vue直播班/100-90-3-monochrome.png"  transform="matrix(1 0 0 1 166.4775 131.0469)">
												</image>
											</g>
											<g>
												
													<image overflow="visible" width="100" height="100" xlink:href="../../../作業/Vue直播班/100-90-3-monochrome.png"  transform="matrix(1 0 0 1 266.4775 131.0469)">
												</image>
											</g>
										</g>
										<g>
											<g>
												
													<image overflow="visible" width="100" height="100" xlink:href="../../../作業/Vue直播班/100-90-3-monochrome.png"  transform="matrix(1 0 0 1 166.4775 31.0469)">
												</image>
											</g>
											<g>
												
													<image overflow="visible" width="100" height="100" xlink:href="../../../作業/Vue直播班/100-90-3-monochrome.png"  transform="matrix(1 0 0 1 266.4775 31.0469)">
												</image>
											</g>
										</g>
									</g>
									<g>
										<g>
											<g>
												
													<image overflow="visible" width="100" height="100" xlink:href="../../../作業/Vue直播班/100-90-3-monochrome.png"  transform="matrix(1 0 0 1 366.4775 131.0469)">
												</image>
											</g>
										</g>
										<g>
											<g>
												
													<image overflow="visible" width="100" height="100" xlink:href="../../../作業/Vue直播班/100-90-3-monochrome.png"  transform="matrix(1 0 0 1 366.4775 31.0469)">
												</image>
											</g>
										</g>
									</g>
								</g>
							</g>
							<g>
								<g>
									<g>
										<g>
											<g>
												
													<image overflow="visible" width="100" height="100" xlink:href="../../../作業/Vue直播班/100-90-3-monochrome.png"  transform="matrix(1 0 0 1 -33.5225 -68.9531)">
												</image>
											</g>
											<g>
												
													<image overflow="visible" width="100" height="100" xlink:href="../../../作業/Vue直播班/100-90-3-monochrome.png"  transform="matrix(1 0 0 1 66.4775 -68.9531)">
												</image>
											</g>
										</g>
									</g>
								</g>
								<g>
									<g>
										<g>
											<g>
												
													<image overflow="visible" width="100" height="100" xlink:href="../../../作業/Vue直播班/100-90-3-monochrome.png"  transform="matrix(1 0 0 1 166.4775 -68.9531)">
												</image>
											</g>
											<g>
												
													<image overflow="visible" width="100" height="100" xlink:href="../../../作業/Vue直播班/100-90-3-monochrome.png"  transform="matrix(1 0 0 1 266.4775 -68.9531)">
												</image>
											</g>
										</g>
									</g>
									<g>
										<g>
											<g>
												
													<image overflow="visible" width="100" height="100" xlink:href="../../../作業/Vue直播班/100-90-3-monochrome.png"  transform="matrix(1 0 0 1 366.4775 -68.9531)">
												</image>
											</g>
										</g>
									</g>
								</g>
							</g>
						</g>
					</g>
				</g>
			</g>
		</g>
	</g>
</g>
<g id="圖層_2">
	<g>
		<path fill-rule="evenodd" clip-rule="evenodd" fill="#FFFFFF" d="M226.273,416.576c-32.15-0.002-63.27-9.58-89.994-27.699
			c-27.333-18.531-47.988-44.705-59.733-75.689c-7.335-19.354-10.821-39.63-10.361-60.268l0.006-0.287l-0.245-0.15
			c-25.935-15.843-45.331-39.229-56.094-67.632C-3,150.955-1.882,114.085,13,81.031C27.882,47.979,54.745,22.698,88.641,9.85
			C104.13,3.978,120.308,1,136.723,1c27.251,0,53.63,8.119,76.284,23.479c23.168,15.709,40.678,37.896,50.635,64.162
			c1.584,4.179,2.993,8.539,4.189,12.959l0.074,0.276l0.277,0.075c23.896,6.507,46.275,18.629,64.716,35.055
			c19.061,16.978,33.949,38.651,43.057,62.677c31.289,82.548-10.411,175.162-92.958,206.453
			c-18.271,6.928-37.354,10.44-56.713,10.44C226.28,416.576,226.278,416.576,226.273,416.576z"/>
		<path fill="#24353F" d="M136.723,1.5c27.151,0,53.433,8.089,76.003,23.393c23.083,15.65,40.527,37.756,50.449,63.925
			c1.578,4.164,2.982,8.509,4.174,12.912l0.149,0.554l0.553,0.15c23.823,6.486,46.132,18.57,64.515,34.945
			c19.001,16.925,33.843,38.53,42.922,62.481c15.11,39.862,13.793,83.224-3.709,122.095c-17.502,38.872-49.094,68.602-88.958,83.713
			c-18.216,6.906-37.241,10.408-56.547,10.408c-32.049,0-63.071-9.548-89.714-27.611c-27.246-18.474-47.838-44.565-59.547-75.455
			c-7.312-19.292-10.787-39.506-10.328-60.078l0.013-0.576l-0.491-0.3c-25.839-15.784-45.164-39.085-55.887-67.383
			c-12.805-33.77-11.69-70.504,3.137-103.437c14.827-32.931,41.591-58.117,75.362-70.92C104.251,4.467,120.368,1.5,136.723,1.5
			 M136.723,0.5c-16.05,0-32.361,2.855-48.259,8.882C18.122,36.047-17.287,114.687,9.384,185.027
			c11.141,29.4,31.393,52.666,56.301,67.882c-0.447,20.065,2.844,40.536,10.394,60.455
			c24.333,64.191,85.391,103.712,150.195,103.712c18.924,0,38.157-3.366,56.901-10.473
			c82.941-31.441,124.685-124.161,93.248-207.098c-18.952-49.995-60.19-84.989-108.109-98.037c-1.18-4.36-2.571-8.697-4.204-13.006
			C243.47,34.019,191.686,0.5,136.723,0.5L136.723,0.5z"/>
	</g>
</g>
</svg>
