<?xml version="1.0" encoding="utf-8"?>
<!-- Generator: Adobe Illustrator 16.0.0, SVG Export Plug-In . SVG Version: 6.00 Build 0)  -->
<!DOCTYPE svg PUBLIC "-//W3C//DTD SVG 1.1//EN" "http://www.w3.org/Graphics/SVG/1.1/DTD/svg11.dtd">
<svg version="1.1" xmlns="http://www.w3.org/2000/svg" xmlns:xlink="http://www.w3.org/1999/xlink" x="0px" y="0px"
	 width="29.053px" height="52.557px" viewBox="0 0 29.053 52.557" enable-background="new 0 0 29.053 52.557" xml:space="preserve">
<g id="N">
</g>
<g id="圖層_3">
	<g>
		<defs>
			<rect id="SVGID_1_" x="-2559.184" y="-469.415" width="1920" height="1080"/>
		</defs>
		<clipPath id="SVGID_2_">
			<use xlink:href="#SVGID_1_"  overflow="visible"/>
		</clipPath>
		<g clip-path="url(#SVGID_2_)">
			<g>
				<g>
					<g>
						<g>
							<g>
								<g>
									<g>
										<g>
											<g>
												
													<image overflow="visible" width="100" height="100" xlink:href="../../../作業/Vue直播班/100-90-3-monochrome.png"  transform="matrix(1 0 0 1 -99.1836 -29.415)">
												</image>
											</g>
										</g>
									</g>
								</g>
							</g>
						</g>
					</g>
				</g>
			</g>
		</g>
	</g>
</g>
<g id="圖層_2">
	<g>
		<polygon fill="#FFFFFF" points="18.255,27.586 4.719,25.418 21.963,4.857 11.716,23.124 27.504,26.535 3.557,48.566 		"/>
		<path fill="#24353F" d="M18.914,9.271l-7.303,13.018l-0.662,1.181l1.323,0.286l14.184,3.064L6.613,45.075l11.593-16.547
			l0.917-1.309l-1.578-0.252L5.668,25.064L18.914,9.271 M25.013,0.443L3.769,25.773l13.618,2.181L0.5,52.057L28.553,26.25
			l-16.069-3.472L25.013,0.443L25.013,0.443z"/>
	</g>
</g>
</svg>
